<svg width="21" height="20" viewBox="0 0 21 20" fill="none" xmlns="http://www.w3.org/2000/svg">
<path d="M9.309 0C11.6882 0 13.6301 1.87393 13.7392 4.22624L13.744 4.435V5.368C13.744 5.78221 13.4082 6.118 12.994 6.118C12.6143 6.118 12.3005 5.83585 12.2508 5.46977L12.244 5.368V4.435C12.244 2.8721 11.022 1.59426 9.48144 1.50498L9.309 1.5H4.434C2.87194 1.5 1.59425 2.72213 1.50498 4.26258L1.5 4.435V15.565C1.5 17.1278 2.7219 18.4057 4.26165 18.495L4.434 18.5H9.319C10.8764 18.5 12.15 17.2824 12.239 15.7478L12.244 15.576V14.633C12.244 14.2188 12.5798 13.883 12.994 13.883C13.3737 13.883 13.6875 14.1652 13.7372 14.5312L13.744 14.633V15.576C13.744 17.9472 11.8772 19.8831 9.53335 19.9949L9.319 20H4.434C2.05555 20 0.113841 18.1259 0.00482718 15.7737L0 15.565V4.435C0 2.05594 1.87376 0.113862 4.22531 0.00482809L4.434 0H9.309ZM17.3041 6.48086L17.3884 6.55329L20.3164 9.46829C20.3427 9.49445 20.3659 9.52108 20.3871 9.54924L20.3164 9.46829C20.3469 9.4987 20.3743 9.53109 20.3985 9.56505C20.4156 9.5888 20.4314 9.6139 20.4456 9.63994C20.4482 9.645 20.4509 9.64997 20.4535 9.65496C20.4661 9.67894 20.4773 9.70381 20.4872 9.72936C20.4913 9.74054 20.4953 9.75186 20.4991 9.76324C20.5064 9.78427 20.5125 9.80591 20.5177 9.82793C20.5201 9.8397 20.5225 9.85137 20.5247 9.86309C20.5288 9.88353 20.5318 9.90462 20.5339 9.92596C20.535 9.94082 20.536 9.95553 20.5366 9.97025C20.5373 9.98012 20.5375 9.98999 20.5375 9.9999L20.5367 10.0282C20.5361 10.0436 20.535 10.059 20.5335 10.0743L20.5375 9.9999C20.5375 10.0467 20.5332 10.0926 20.525 10.1371C20.5226 10.1482 20.5201 10.1599 20.5174 10.1715C20.5123 10.1947 20.5059 10.2172 20.4985 10.2392C20.4947 10.2494 20.491 10.2598 20.487 10.27C20.4778 10.2949 20.4669 10.319 20.4549 10.3424C20.4519 10.3477 20.4488 10.3536 20.4456 10.3595C20.4111 10.4228 20.368 10.48 20.3178 10.5302L20.3164 10.5312L17.3884 13.4472C17.0949 13.7395 16.6201 13.7385 16.3278 13.445C16.0621 13.1782 16.0387 12.7615 16.2572 12.4684L16.33 12.3844L17.969 10.749L7.7465 10.7499C7.33229 10.7499 6.9965 10.4141 6.9965 9.9999C6.9965 9.6202 7.27866 9.30641 7.64473 9.25675L7.7465 9.2499L17.971 9.249L16.3301 7.61631C16.0632 7.35064 16.0381 6.93403 16.2553 6.63993L16.3277 6.55565C16.5934 6.28879 17.01 6.26366 17.3041 6.48086Z" fill="currentColor"/>
</svg>
