<svg width="17" height="20" viewBox="0 0 17 20" fill="none" xmlns="http://www.w3.org/2000/svg">
<path d="M11.108 17.6906C11.4045 17.9321 11.4515 18.3713 11.2129 18.6715C11.0366 18.8935 10.8327 19.0922 10.6167 19.255C9.8891 19.826 8.96401 20.0849 8.0453 19.9754C7.12578 19.8659 6.287 19.3962 5.71459 18.6689C5.4774 18.3676 5.52646 17.9286 5.82418 17.6885C6.12189 17.4484 6.55551 17.4981 6.79271 17.7995C7.13792 18.2381 7.64669 18.523 8.2064 18.5896C8.76691 18.6564 9.33075 18.4986 9.78256 18.1443C9.91578 18.0437 10.0355 17.927 10.1389 17.7969C10.3775 17.4967 10.8114 17.4491 11.108 17.6906ZM1.65213 6.99974L1.66444 6.40391C1.67324 6.14906 1.68686 5.91248 1.70685 5.68096C2.00654 2.44456 5.09565 0 8.46479 0H8.53612C11.9034 0 14.9934 2.44285 15.3034 5.68536C15.3212 5.89148 15.3288 6.07458 15.3311 6.33206L15.332 7.11982C15.3327 7.19158 15.3339 7.25469 15.3358 7.31353L15.345 7.50977L15.3896 7.69688C15.5303 8.21802 15.7776 8.70525 16.1162 9.12821L16.2669 9.30546L16.3286 9.38467C16.7348 9.99168 16.9668 10.698 17 11.4587L16.999 11.862C16.9707 12.763 16.6399 13.6331 16.0338 14.3582C15.2311 15.2101 14.1434 15.7393 12.9873 15.8457C10.002 16.1699 6.99 16.1699 4.01296 15.8466C2.84896 15.7346 1.76444 15.2069 0.926629 14.3223C0.308819 13.5691 -0.0195851 12.6208 0.000903941 11.6624L0.00174968 11.4242C0.0374427 10.6955 0.268036 9.98985 0.669363 9.3802L0.736534 9.29378C1.20525 8.77993 1.52569 8.15105 1.66473 7.47306L1.64969 7.53395L1.65213 6.99974ZM8.53612 1.39535H8.46479C5.76651 1.39535 3.30804 3.34087 3.07967 5.80678C3.06798 5.94228 3.05866 6.08207 3.05137 6.2292L3.03532 6.69559L3.02879 7.61486L3.01441 7.75667C2.82444 8.68301 2.38728 9.54093 1.74929 10.2404L1.79856 10.1833L1.71045 10.3291C1.54539 10.6265 1.4389 10.9495 1.39682 11.2682L1.37935 11.4587L1.37919 11.6774C1.36568 12.3142 1.58086 12.9356 1.95369 13.3931C2.52881 13.9985 3.30682 14.377 4.15168 14.4583C7.03928 14.7719 9.9527 14.7719 12.8514 14.4572C13.6871 14.3802 14.4645 14.002 15.0084 13.4267C15.42 12.933 15.6375 12.3097 15.6216 11.6536L15.6224 11.4901C15.6013 11.0186 15.451 10.5613 15.1873 10.1672L15.2026 10.1926L15.0647 10.0309C14.5893 9.44409 14.244 8.76351 14.0517 8.03396L13.9868 7.75818L13.9739 7.66551C13.9642 7.53013 13.9585 7.40982 13.9555 7.26514L13.9528 6.3605C13.9509 6.13044 13.9447 5.97558 13.9307 5.81326C13.6944 3.34075 11.2336 1.39535 8.53612 1.39535Z" fill="currentColor"/>
</svg>
