<svg width="20" height="19" viewBox="0 0 20 19" fill="none" xmlns="http://www.w3.org/2000/svg">
<path d="M4.48311 0.315291C6.2404 -0.249969 8.14194 -0.04656 9.73299 0.856235L9.99639 1.01429L10.2645 0.855348C11.773 0.00130117 13.5624 -0.226913 15.2463 0.236231L15.512 0.31535C19.1847 1.4978 20.8291 5.50801 19.5937 9.34516C18.9743 11.1301 17.9584 12.7485 16.6174 14.0824C14.7927 15.8545 12.7812 17.4194 10.6218 18.7473L10.3926 18.8897C10.1598 19.0344 9.86561 19.0369 9.63044 18.8961L9.38488 18.7491C7.22254 17.4194 5.21101 15.8545 3.38004 14.0762C2.04534 12.7485 1.02947 11.1301 0.40482 9.32952C-0.826136 5.50569 0.811517 1.49738 4.48311 0.315291ZM9.37465 2.35427C8.07056 1.46289 6.43331 1.22339 4.93153 1.70646C2.08746 2.62212 0.798077 5.77801 1.79207 8.86635C2.33877 10.4417 3.23505 11.8696 4.40582 13.0343C6.15375 14.7319 8.08049 16.2308 10.144 17.4998L10.0013 17.4098L10.4691 17.1156C12.1026 16.061 13.641 14.8642 15.0636 13.5421L15.5916 13.0405C16.7687 11.8696 17.665 10.4417 18.2064 8.88199C19.2047 5.78096 17.9097 2.62284 15.0641 1.70669C13.4873 1.20082 11.766 1.49057 10.436 2.48625C10.1806 2.67742 9.83072 2.68111 9.57138 2.49538L9.37465 2.35427ZM13.8703 3.98374C15.1917 4.40551 16.1288 5.58859 16.2457 6.97853C16.2796 7.3807 15.9807 7.73413 15.5782 7.76794C15.1757 7.80175 14.822 7.50313 14.7881 7.10096C14.7206 6.29803 14.1814 5.61735 13.4252 5.37597C13.0404 5.25316 12.8281 4.84194 12.951 4.45749C13.0739 4.07304 13.4855 3.86093 13.8703 3.98374Z" fill="currentColor"/>
</svg>
